<mxfile host="app.diagrams.net" agent="Mozilla/5.0 (Windows NT 10.0; Win64; x64) AppleWebKit/537.36 (KHTML, like Gecko) Chrome/136.0.0.0 Safari/537.36" version="27.0.9">
  <diagram name="Page-1" id="tA_SJaqa-9wHxWihn57W">
    <mxGraphModel dx="2226" dy="1185" grid="0" gridSize="10" guides="1" tooltips="1" connect="1" arrows="1" fold="1" page="0" pageScale="1" pageWidth="850" pageHeight="1100" math="0" shadow="1">
      <root>
        <mxCell id="0" />
        <mxCell id="1" parent="0" />
        <mxCell id="yYGXFNO1V-ZtBMGJ8n_N-63" value="" style="rounded=1;whiteSpace=wrap;html=1;absoluteArcSize=1;arcSize=14;strokeWidth=2;" parent="1" vertex="1">
          <mxGeometry x="-87" y="941" width="369" height="136" as="geometry" />
        </mxCell>
        <mxCell id="yYGXFNO1V-ZtBMGJ8n_N-7" style="edgeStyle=orthogonalEdgeStyle;rounded=0;orthogonalLoop=1;jettySize=auto;html=1;exitX=0.5;exitY=1;exitDx=0;exitDy=0;" parent="1" source="y_sWD-JEh5Cgod3ZYhG4-1" target="yYGXFNO1V-ZtBMGJ8n_N-4" edge="1">
          <mxGeometry relative="1" as="geometry" />
        </mxCell>
        <mxCell id="y_sWD-JEh5Cgod3ZYhG4-1" value="" style="ellipse;html=1;shape=startState;fillColor=#000000;strokeColor=#ff0000;" parent="1" vertex="1">
          <mxGeometry x="196" y="-91" width="40" height="40" as="geometry" />
        </mxCell>
        <mxCell id="yYGXFNO1V-ZtBMGJ8n_N-9" style="edgeStyle=orthogonalEdgeStyle;rounded=0;orthogonalLoop=1;jettySize=auto;html=1;exitX=0.11;exitY=0.89;exitDx=0;exitDy=0;exitPerimeter=0;" parent="1" source="yYGXFNO1V-ZtBMGJ8n_N-4" target="yYGXFNO1V-ZtBMGJ8n_N-8" edge="1">
          <mxGeometry relative="1" as="geometry" />
        </mxCell>
        <mxCell id="yYGXFNO1V-ZtBMGJ8n_N-12" value="Login" style="edgeLabel;html=1;align=center;verticalAlign=middle;resizable=0;points=[];" parent="yYGXFNO1V-ZtBMGJ8n_N-9" vertex="1" connectable="0">
          <mxGeometry x="0.0315" y="-2" relative="1" as="geometry">
            <mxPoint as="offset" />
          </mxGeometry>
        </mxCell>
        <mxCell id="yYGXFNO1V-ZtBMGJ8n_N-4" value="Idle" style="strokeWidth=2;html=1;shape=mxgraph.flowchart.terminator;whiteSpace=wrap;" parent="1" vertex="1">
          <mxGeometry x="166" y="57" width="100" height="60" as="geometry" />
        </mxCell>
        <mxCell id="yYGXFNO1V-ZtBMGJ8n_N-10" style="edgeStyle=orthogonalEdgeStyle;rounded=0;orthogonalLoop=1;jettySize=auto;html=1;exitX=0.5;exitY=1;exitDx=0;exitDy=0;" parent="1" source="yYGXFNO1V-ZtBMGJ8n_N-8" target="yYGXFNO1V-ZtBMGJ8n_N-11" edge="1">
          <mxGeometry relative="1" as="geometry">
            <mxPoint x="139.8571428571429" y="360.7142857142858" as="targetPoint" />
          </mxGeometry>
        </mxCell>
        <mxCell id="yYGXFNO1V-ZtBMGJ8n_N-8" value="Login" style="rounded=1;whiteSpace=wrap;html=1;absoluteArcSize=1;arcSize=14;strokeWidth=2;" parent="1" vertex="1">
          <mxGeometry x="-8" y="135" width="100" height="100" as="geometry" />
        </mxCell>
        <mxCell id="yYGXFNO1V-ZtBMGJ8n_N-15" style="edgeStyle=orthogonalEdgeStyle;rounded=0;orthogonalLoop=1;jettySize=auto;html=1;exitX=0.5;exitY=1;exitDx=0;exitDy=0;exitPerimeter=0;entryX=0.417;entryY=0.01;entryDx=0;entryDy=0;entryPerimeter=0;" parent="1" source="yYGXFNO1V-ZtBMGJ8n_N-11" target="yYGXFNO1V-ZtBMGJ8n_N-16" edge="1">
          <mxGeometry relative="1" as="geometry">
            <mxPoint x="171.8571428571429" y="536.1428571428571" as="targetPoint" />
          </mxGeometry>
        </mxCell>
        <mxCell id="yYGXFNO1V-ZtBMGJ8n_N-17" value="Authentication succeeds&amp;nbsp;" style="edgeLabel;html=1;align=center;verticalAlign=middle;resizable=0;points=[];" parent="yYGXFNO1V-ZtBMGJ8n_N-15" vertex="1" connectable="0">
          <mxGeometry x="0.1666" y="1" relative="1" as="geometry">
            <mxPoint as="offset" />
          </mxGeometry>
        </mxCell>
        <mxCell id="yYGXFNO1V-ZtBMGJ8n_N-11" value="Finance Login Auth" style="strokeWidth=2;html=1;shape=mxgraph.flowchart.decision;whiteSpace=wrap;" parent="1" vertex="1">
          <mxGeometry x="121.99714285714289" y="339.0042857142858" width="100" height="100" as="geometry" />
        </mxCell>
        <mxCell id="yYGXFNO1V-ZtBMGJ8n_N-13" style="edgeStyle=orthogonalEdgeStyle;rounded=0;orthogonalLoop=1;jettySize=auto;html=1;exitX=1;exitY=0.5;exitDx=0;exitDy=0;exitPerimeter=0;entryX=0.43;entryY=0.957;entryDx=0;entryDy=0;entryPerimeter=0;" parent="1" source="yYGXFNO1V-ZtBMGJ8n_N-11" target="yYGXFNO1V-ZtBMGJ8n_N-4" edge="1">
          <mxGeometry relative="1" as="geometry" />
        </mxCell>
        <mxCell id="yYGXFNO1V-ZtBMGJ8n_N-14" value="Authentication Failed" style="edgeLabel;html=1;align=center;verticalAlign=middle;resizable=0;points=[];" parent="yYGXFNO1V-ZtBMGJ8n_N-13" vertex="1" connectable="0">
          <mxGeometry x="-0.1783" y="1" relative="1" as="geometry">
            <mxPoint as="offset" />
          </mxGeometry>
        </mxCell>
        <mxCell id="yYGXFNO1V-ZtBMGJ8n_N-18" value="" style="rounded=1;whiteSpace=wrap;html=1;absoluteArcSize=1;arcSize=14;strokeWidth=2;" parent="1" vertex="1">
          <mxGeometry x="-113" y="753" width="590" height="146" as="geometry" />
        </mxCell>
        <mxCell id="yYGXFNO1V-ZtBMGJ8n_N-24" style="edgeStyle=orthogonalEdgeStyle;rounded=0;orthogonalLoop=1;jettySize=auto;html=1;exitX=0.25;exitY=1;exitDx=0;exitDy=0;" parent="1" source="yYGXFNO1V-ZtBMGJ8n_N-16" target="yYGXFNO1V-ZtBMGJ8n_N-20" edge="1">
          <mxGeometry relative="1" as="geometry" />
        </mxCell>
        <mxCell id="yYGXFNO1V-ZtBMGJ8n_N-37" style="edgeStyle=orthogonalEdgeStyle;rounded=0;orthogonalLoop=1;jettySize=auto;html=1;exitX=0.75;exitY=1;exitDx=0;exitDy=0;" parent="1" source="yYGXFNO1V-ZtBMGJ8n_N-16" target="yYGXFNO1V-ZtBMGJ8n_N-22" edge="1">
          <mxGeometry relative="1" as="geometry">
            <Array as="points">
              <mxPoint x="205" y="718" />
              <mxPoint x="266" y="718" />
            </Array>
          </mxGeometry>
        </mxCell>
        <mxCell id="yYGXFNO1V-ZtBMGJ8n_N-16" value="Finance Dashboard" style="rounded=1;whiteSpace=wrap;html=1;absoluteArcSize=1;arcSize=14;strokeWidth=2;" parent="1" vertex="1">
          <mxGeometry x="130" y="546" width="100" height="100" as="geometry" />
        </mxCell>
        <mxCell id="yYGXFNO1V-ZtBMGJ8n_N-19" value="Actions" style="text;html=1;align=center;verticalAlign=middle;resizable=0;points=[];autosize=1;strokeColor=none;fillColor=none;" parent="1" vertex="1">
          <mxGeometry x="-117" y="759" width="57" height="26" as="geometry" />
        </mxCell>
        <mxCell id="yYGXFNO1V-ZtBMGJ8n_N-28" style="edgeStyle=orthogonalEdgeStyle;rounded=0;orthogonalLoop=1;jettySize=auto;html=1;exitX=0.25;exitY=1;exitDx=0;exitDy=0;" parent="1" source="yYGXFNO1V-ZtBMGJ8n_N-20" target="yYGXFNO1V-ZtBMGJ8n_N-29" edge="1">
          <mxGeometry relative="1" as="geometry">
            <mxPoint x="-279.57142857142856" y="1010.4285714285713" as="targetPoint" />
          </mxGeometry>
        </mxCell>
        <mxCell id="yYGXFNO1V-ZtBMGJ8n_N-20" value="View Requests" style="rounded=1;whiteSpace=wrap;html=1;absoluteArcSize=1;arcSize=14;strokeWidth=2;" parent="1" vertex="1">
          <mxGeometry x="-107" y="789" width="100" height="100" as="geometry" />
        </mxCell>
        <mxCell id="yYGXFNO1V-ZtBMGJ8n_N-30" style="edgeStyle=orthogonalEdgeStyle;rounded=0;orthogonalLoop=1;jettySize=auto;html=1;exitX=0.25;exitY=1;exitDx=0;exitDy=0;" parent="1" source="yYGXFNO1V-ZtBMGJ8n_N-21" target="yYGXFNO1V-ZtBMGJ8n_N-32" edge="1">
          <mxGeometry relative="1" as="geometry">
            <mxPoint x="-40.14285714285711" y="999.5714285714287" as="targetPoint" />
          </mxGeometry>
        </mxCell>
        <mxCell id="yYGXFNO1V-ZtBMGJ8n_N-61" style="edgeStyle=orthogonalEdgeStyle;rounded=0;orthogonalLoop=1;jettySize=auto;html=1;exitX=0.75;exitY=1;exitDx=0;exitDy=0;" parent="1" source="yYGXFNO1V-ZtBMGJ8n_N-21" target="yYGXFNO1V-ZtBMGJ8n_N-62" edge="1">
          <mxGeometry relative="1" as="geometry">
            <mxPoint x="162.44444444444434" y="967.3333333333333" as="targetPoint" />
          </mxGeometry>
        </mxCell>
        <mxCell id="yYGXFNO1V-ZtBMGJ8n_N-21" value="Monitor Inventory" style="rounded=1;whiteSpace=wrap;html=1;absoluteArcSize=1;arcSize=14;strokeWidth=2;" parent="1" vertex="1">
          <mxGeometry x="50" y="789" width="100" height="100" as="geometry" />
        </mxCell>
        <mxCell id="yYGXFNO1V-ZtBMGJ8n_N-35" style="edgeStyle=orthogonalEdgeStyle;rounded=0;orthogonalLoop=1;jettySize=auto;html=1;exitX=0.5;exitY=1;exitDx=0;exitDy=0;" parent="1" source="yYGXFNO1V-ZtBMGJ8n_N-22" target="yYGXFNO1V-ZtBMGJ8n_N-36" edge="1">
          <mxGeometry relative="1" as="geometry">
            <mxPoint x="266.1428571428571" y="960.7142857142858" as="targetPoint" />
          </mxGeometry>
        </mxCell>
        <mxCell id="yYGXFNO1V-ZtBMGJ8n_N-60" style="edgeStyle=orthogonalEdgeStyle;rounded=0;orthogonalLoop=1;jettySize=auto;html=1;exitX=0.5;exitY=1;exitDx=0;exitDy=0;entryX=0.5;entryY=0;entryDx=0;entryDy=0;" parent="1" source="yYGXFNO1V-ZtBMGJ8n_N-23" target="yYGXFNO1V-ZtBMGJ8n_N-54" edge="1">
          <mxGeometry relative="1" as="geometry" />
        </mxCell>
        <mxCell id="yYGXFNO1V-ZtBMGJ8n_N-23" value="Logout" style="rounded=1;whiteSpace=wrap;html=1;absoluteArcSize=1;arcSize=14;strokeWidth=2;" parent="1" vertex="1">
          <mxGeometry x="366" y="789" width="100" height="100" as="geometry" />
        </mxCell>
        <mxCell id="yYGXFNO1V-ZtBMGJ8n_N-22" value="Manage Users" style="rounded=1;whiteSpace=wrap;html=1;absoluteArcSize=1;arcSize=14;strokeWidth=2;" parent="1" vertex="1">
          <mxGeometry x="216" y="789" width="100" height="100" as="geometry" />
        </mxCell>
        <mxCell id="yYGXFNO1V-ZtBMGJ8n_N-25" style="edgeStyle=orthogonalEdgeStyle;rounded=0;orthogonalLoop=1;jettySize=auto;html=1;exitX=0.5;exitY=1;exitDx=0;exitDy=0;entryX=0.613;entryY=0.037;entryDx=0;entryDy=0;entryPerimeter=0;" parent="1" source="yYGXFNO1V-ZtBMGJ8n_N-16" target="yYGXFNO1V-ZtBMGJ8n_N-21" edge="1">
          <mxGeometry relative="1" as="geometry">
            <Array as="points">
              <mxPoint x="180" y="736" />
              <mxPoint x="111" y="736" />
            </Array>
          </mxGeometry>
        </mxCell>
        <mxCell id="yYGXFNO1V-ZtBMGJ8n_N-38" style="edgeStyle=orthogonalEdgeStyle;rounded=0;orthogonalLoop=1;jettySize=auto;html=1;exitX=0.5;exitY=1;exitDx=0;exitDy=0;" parent="1" source="yYGXFNO1V-ZtBMGJ8n_N-29" target="yYGXFNO1V-ZtBMGJ8n_N-39" edge="1">
          <mxGeometry relative="1" as="geometry">
            <mxPoint x="-279.57142857142856" y="1147" as="targetPoint" />
          </mxGeometry>
        </mxCell>
        <mxCell id="yYGXFNO1V-ZtBMGJ8n_N-29" value="Review Request" style="rounded=1;whiteSpace=wrap;html=1;absoluteArcSize=1;arcSize=14;strokeWidth=2;" parent="1" vertex="1">
          <mxGeometry x="-329.57142857142856" y="960.4285714285713" width="100" height="100" as="geometry" />
        </mxCell>
        <mxCell id="yYGXFNO1V-ZtBMGJ8n_N-32" value="Check Stock Levels" style="rounded=1;whiteSpace=wrap;html=1;absoluteArcSize=1;arcSize=14;strokeWidth=2;" parent="1" vertex="1">
          <mxGeometry x="-59.992857142857105" y="957.0014285714287" width="100" height="100" as="geometry" />
        </mxCell>
        <mxCell id="yYGXFNO1V-ZtBMGJ8n_N-36" value="Edit User Privilegies" style="rounded=1;whiteSpace=wrap;html=1;absoluteArcSize=1;arcSize=14;strokeWidth=2;" parent="1" vertex="1">
          <mxGeometry x="296.0028571428571" y="957.0042857142859" width="100" height="100" as="geometry" />
        </mxCell>
        <mxCell id="yYGXFNO1V-ZtBMGJ8n_N-40" style="edgeStyle=orthogonalEdgeStyle;rounded=0;orthogonalLoop=1;jettySize=auto;html=1;entryX=0.466;entryY=0.003;entryDx=0;entryDy=0;entryPerimeter=0;" parent="1" source="yYGXFNO1V-ZtBMGJ8n_N-39" target="yYGXFNO1V-ZtBMGJ8n_N-43" edge="1">
          <mxGeometry relative="1" as="geometry">
            <mxPoint x="-93.85714285714289" y="1291" as="targetPoint" />
          </mxGeometry>
        </mxCell>
        <mxCell id="yYGXFNO1V-ZtBMGJ8n_N-41" value="Decline" style="edgeLabel;html=1;align=center;verticalAlign=middle;resizable=0;points=[];" parent="yYGXFNO1V-ZtBMGJ8n_N-40" vertex="1" connectable="0">
          <mxGeometry x="-0.189" y="1" relative="1" as="geometry">
            <mxPoint as="offset" />
          </mxGeometry>
        </mxCell>
        <mxCell id="yYGXFNO1V-ZtBMGJ8n_N-44" style="edgeStyle=orthogonalEdgeStyle;rounded=0;orthogonalLoop=1;jettySize=auto;html=1;exitX=0;exitY=0.5;exitDx=0;exitDy=0;exitPerimeter=0;" parent="1" source="yYGXFNO1V-ZtBMGJ8n_N-39" target="yYGXFNO1V-ZtBMGJ8n_N-45" edge="1">
          <mxGeometry relative="1" as="geometry">
            <mxPoint x="-430.42857142857144" y="1309.2857142857142" as="targetPoint" />
          </mxGeometry>
        </mxCell>
        <mxCell id="yYGXFNO1V-ZtBMGJ8n_N-46" value="Approve" style="edgeLabel;html=1;align=center;verticalAlign=middle;resizable=0;points=[];" parent="yYGXFNO1V-ZtBMGJ8n_N-44" vertex="1" connectable="0">
          <mxGeometry x="-0.1346" y="-1" relative="1" as="geometry">
            <mxPoint as="offset" />
          </mxGeometry>
        </mxCell>
        <mxCell id="yYGXFNO1V-ZtBMGJ8n_N-39" value="Approval" style="strokeWidth=2;html=1;shape=mxgraph.flowchart.decision;whiteSpace=wrap;" parent="1" vertex="1">
          <mxGeometry x="-329.57142857142856" y="1151" width="100" height="100" as="geometry" />
        </mxCell>
        <mxCell id="yYGXFNO1V-ZtBMGJ8n_N-43" value="Notify User" style="rounded=1;whiteSpace=wrap;html=1;absoluteArcSize=1;arcSize=14;strokeWidth=2;" parent="1" vertex="1">
          <mxGeometry x="-159.99714285714288" y="1267" width="100" height="100" as="geometry" />
        </mxCell>
        <mxCell id="yYGXFNO1V-ZtBMGJ8n_N-50" style="edgeStyle=orthogonalEdgeStyle;rounded=0;orthogonalLoop=1;jettySize=auto;html=1;exitX=0.5;exitY=1;exitDx=0;exitDy=0;" parent="1" source="yYGXFNO1V-ZtBMGJ8n_N-45" target="yYGXFNO1V-ZtBMGJ8n_N-43" edge="1">
          <mxGeometry relative="1" as="geometry" />
        </mxCell>
        <mxCell id="yYGXFNO1V-ZtBMGJ8n_N-45" value="Update Inventory" style="rounded=1;whiteSpace=wrap;html=1;absoluteArcSize=1;arcSize=14;strokeWidth=2;" parent="1" vertex="1">
          <mxGeometry x="-480.42857142857133" y="1266.9957142857143" width="100" height="100" as="geometry" />
        </mxCell>
        <mxCell id="yYGXFNO1V-ZtBMGJ8n_N-54" value="" style="ellipse;html=1;shape=endState;fillColor=#000000;strokeColor=#ff0000;" parent="1" vertex="1">
          <mxGeometry x="401" y="1333" width="30" height="30" as="geometry" />
        </mxCell>
        <mxCell id="yYGXFNO1V-ZtBMGJ8n_N-62" value="Predict needs" style="rounded=1;whiteSpace=wrap;html=1;absoluteArcSize=1;arcSize=14;strokeWidth=2;" parent="1" vertex="1">
          <mxGeometry x="164.00444444444435" y="957.0033333333332" width="100" height="100" as="geometry" />
        </mxCell>
        <mxCell id="yYGXFNO1V-ZtBMGJ8n_N-64" value="Inventory Monitoring" style="text;html=1;align=center;verticalAlign=middle;resizable=0;points=[];autosize=1;strokeColor=none;fillColor=none;" parent="1" vertex="1">
          <mxGeometry x="34.5" y="951" width="127" height="26" as="geometry" />
        </mxCell>
      </root>
    </mxGraphModel>
  </diagram>
</mxfile>
